# xmcd
#
# Track frame offsets: 
#        150
#        16464
#        32317
#        44748
#        62441
#        81533
#        101288
#        114401
#        130487
#        148715
#        156965
#        177001
#        189877
#        208395
#        226635
#        245491
#        265210
#        282026
#        300923
#        322295
#        336626
#
# Disc length: 4647 seconds
#
# Revision: 1
# Processed by: cddbd v1.5.2PL0 Copyright (c) Steve Scherf et al.
# Submitted via: ExactAudioCopy v1.0b3
#
DISCID=2b122515
DTITLE=Steve Hofmeyr - 25 Jaar se Bestes cd 1
DYEAR=2013
DGENRE=
TTITLE0=Laaste Lag
TTITLE1=Agter Elke Man
TTITLE2=Hand Upon My Shoulder
TTITLE3=Lose When You Lie
TTITLE4=Ek Ken Jou Soms
TTITLE5=Ek Weet Jy Weet
TTITLE6=Rosie (1944)
TTITLE7=Last Time U Came Along
TTITLE8=Die Sprokie
TTITLE9=BOE!
TTITLE10=Deur jou Vingers
TTITLE11=Kyk hoe Lyk Ons N ou
TTITLE12=No Hero
TTITLE13=Kiss Me
TTITLE14=Ver Hiervandaan
TTITLE15=Daar Waar Jy Moet Wees
TTITLE16=Loves the Light
TTITLE17=Gimme Tonite
TTITLE18=Verstaan Mekaar
TTITLE19=Die Kind
TTITLE20=Assegaai
EXTD=
EXTT0=
EXTT1=
EXTT2=
EXTT3=
EXTT4=
EXTT5=
EXTT6=
EXTT7=
EXTT8=
EXTT9=
EXTT10=
EXTT11=
EXTT12=
EXTT13=
EXTT14=
EXTT15=
EXTT16=
EXTT17=
EXTT18=
EXTT19=
EXTT20=
PLAYORDER=
